<svg width="324" height="574" viewBox="0 0 324 574" fill="none" xmlns="http://www.w3.org/2000/svg">
<path d="M126.5 90.5C126.5 86.8333 126.167 83.1666 125.5 79.5C125.167 75.5 124.167 72 122.5 69C121.167 65.6666 119 63 116 61C113.333 59 109.5 58 104.5 58C98.1667 58 92.8333 60 88.5 64C86.5 58.6666 85.5 53.8333 85.5 49.5C85.5 44.1667 86.3333 39 88 34C90 28.6666 93 24 97 20C101 16 106 12.8333 112 10.5C118.333 7.83331 126 6.49997 135 6.49997C155 6.49997 170.5 12.5 181.5 24.5C192.5 36.5 198 53 198 74V370C189 370 180.167 369.333 171.5 368C163.167 366.667 155.5 364 148.5 360C141.833 355.667 136.5 349.333 132.5 341C128.5 332.667 126.5 321.5 126.5 307.5V90.5ZM78 370H73C64.3333 370 56 369.167 48 367.5C40 365.833 32.8333 362.833 26.5 358.5C20.5 354.167 15.5 348.167 11.5 340.5C7.83333 332.833 6 322.833 6 310.5V6.99999H14C22 6.99999 29.8333 7.99999 37.5 9.99998C45.1667 11.6666 52 14.8333 58 19.5C64 23.8333 68.8333 29.8333 72.5 37.5C76.1667 45.1667 78 55 78 67V370ZM246.5 90.5C246.5 86.8333 246.167 83.1666 245.5 79.5C245.167 75.5 244.167 72 242.5 69C241.167 65.6666 239 63 236 61C233.333 59 229.5 58 224.5 58C218.167 58 212.833 60 208.5 64C206.5 58.6666 205.5 53.8333 205.5 49.5C205.5 44.1667 206.333 39 208 34C210 28.6666 213 24 217 20C221 16 226 12.8333 232 10.5C238.333 7.83331 246 6.49997 255 6.49997C275 6.49997 290.5 12.5 301.5 24.5C312.5 36.5 318 53 318 74V370C309 370 300.167 369.333 291.5 368C283.167 366.667 275.5 364 268.5 360C261.833 355.667 256.5 349.333 252.5 341C248.5 332.667 246.5 321.5 246.5 307.5V90.5Z" fill="url(#paint0_linear_2_5)"/>
<path d="M197.512 339.576C197.512 343.8 197.688 347.848 198.04 351.72C198.744 355.592 199.8 359.112 201.208 362.28C202.968 365.096 205.256 367.56 208.072 369.672C211.24 371.432 215.464 372.312 220.744 372.312C223.56 372.312 226.376 371.96 229.192 371.256C232.36 370.2 235.176 368.616 237.64 366.504C239.048 369.32 239.928 372.136 240.28 374.952C240.632 377.416 240.808 380.056 240.808 382.872C240.808 394.136 236.232 403.64 227.08 411.384C217.928 419.128 205.432 423 189.592 423C170.584 423 155.272 417.192 143.656 405.576C132.392 393.608 126.76 376.536 126.76 354.36V155.304H129.928C151.048 155.304 167.592 160.408 179.56 170.616C191.528 180.472 197.512 196.488 197.512 218.664V339.576ZM317.896 431.976C317.896 453.8 311.56 469.464 298.888 478.968C286.568 488.824 271.256 493.752 252.952 493.752H247.144V155.304H250.312C258.056 155.304 265.976 156.36 274.072 158.472C282.168 160.584 289.384 164.104 295.72 169.032C302.408 173.608 307.688 179.768 311.56 187.512C315.784 195.256 317.896 204.584 317.896 215.496V431.976ZM158.44 516.456C158.44 505.544 160.552 496.568 164.776 489.528C169 482.84 174.104 477.56 180.088 473.688C186.072 469.816 192.408 467.176 199.096 465.768C205.784 464.712 211.592 464.184 216.52 464.184C220.744 464.184 224.264 464.536 227.08 465.24V489.528C227.08 496.92 228.84 502.376 232.36 505.896C235.88 509.416 240.28 511.176 245.56 511.176C251.896 511.176 257.528 509.064 262.456 504.84C263.512 507.656 264.04 510.12 264.04 512.232C264.392 514.696 264.568 517.336 264.568 520.152C264.568 524.376 263.512 529.128 261.4 534.408C259.64 540.04 256.648 545.144 252.424 549.72C248.552 554.648 243.272 558.696 236.584 561.864C230.248 565.384 222.504 567.144 213.352 567.144C203.848 567.144 195.576 565.56 188.536 562.392C181.848 559.224 176.216 555.176 171.64 550.248C167.416 545.672 164.072 540.392 161.608 534.408C159.496 528.424 158.44 522.44 158.44 516.456Z" fill="url(#paint1_linear_2_5)"/>
<path d="M122.51 79.7491L122.522 79.8938L122.548 80.0366C123.183 83.5291 123.5 87.0162 123.5 90.5V307.5C123.5 310.434 123.586 313.258 123.76 315.972V354.36C123.76 377.028 129.523 394.937 141.471 407.632L141.503 407.665L141.535 407.697C153.802 419.965 169.924 426 189.592 426C205.911 426 219.171 422.006 229.018 413.674C238.794 405.402 243.808 395.081 243.808 382.872C243.808 379.942 243.626 377.168 243.254 374.554C242.853 371.374 241.863 368.241 240.323 365.162L238.605 361.726L235.688 364.226C233.555 366.054 231.118 367.437 228.352 368.373C225.804 369.001 223.27 369.312 220.744 369.312C215.869 369.312 212.259 368.512 209.704 367.145C207.304 365.316 205.366 363.223 203.863 360.867C202.622 358.028 201.667 354.849 201.016 351.314C201.01 351.256 201.005 351.198 201 351.139V74C201 52.474 195.352 35.1719 183.711 22.4728C172.017 9.71515 155.634 3.49997 135 3.49997C125.735 3.49997 117.663 4.86808 110.874 7.71895C104.557 10.181 99.202 13.5553 94.8787 17.8786L97 20L94.8787 17.8787C90.5737 22.1836 87.3403 27.2152 85.191 32.9466L85.1715 32.9986L85.154 33.0513C83.3841 38.3609 82.5 43.8481 82.5 49.5C82.5 54.2864 83.6022 59.4833 85.691 65.0533L87.2572 69.2299L90.5348 66.2044C94.2708 62.7558 98.8599 61 104.5 61C109.159 61 112.255 61.9409 114.2 63.4L114.267 63.4499L114.336 63.4961C116.833 65.161 118.608 67.3469 119.715 70.1141L119.785 70.2907L119.878 70.4569C121.305 73.0271 122.206 76.1019 122.51 79.7491ZM78 373H81V370V67C81 54.7244 79.129 44.4074 75.2064 36.2056C71.3643 28.172 66.2431 21.7649 59.7998 17.0993C53.46 12.1783 46.2464 8.84018 38.1979 7.08166C30.3005 5.02685 22.2324 3.99999 14 3.99999H6H3V6.99999V310.5C3 323.094 4.86662 333.583 8.7936 341.794L8.81611 341.841L8.84025 341.888C13.0198 349.898 18.3065 356.283 24.7435 360.932L24.7745 360.954L24.806 360.976C31.4869 365.547 39.026 368.695 47.3881 370.437C55.6011 372.148 64.1401 373 73 373H78ZM242.51 79.7491L242.522 79.8938L242.548 80.0366C243.183 83.5291 243.5 87.0162 243.5 90.5V307.5C243.5 312.108 243.712 316.446 244.144 320.508V493.752V496.752H247.144H252.952C271.806 496.752 287.798 491.668 300.726 481.339C314.388 471.071 320.896 454.341 320.896 431.976V373H321V370V74C321 52.474 315.352 35.1719 303.711 22.4728C292.017 9.71515 275.634 3.49997 255 3.49997C245.735 3.49997 237.663 4.86807 230.874 7.71891C224.557 10.181 219.202 13.5553 214.879 17.8787C210.574 22.1836 207.34 27.2152 205.191 32.9466L205.172 32.9986L205.154 33.0513C203.384 38.3609 202.5 43.8481 202.5 49.5C202.5 54.2864 203.602 59.4833 205.691 65.0533L207.257 69.2299L210.535 66.2044C214.271 62.7558 218.86 61 224.5 61C229.159 61 232.255 61.9409 234.2 63.4L234.267 63.45L234.336 63.4961C236.833 65.161 238.608 67.3469 239.715 70.1141L239.785 70.2907L239.878 70.4569C241.305 73.0271 242.206 76.1019 242.51 79.7491ZM162.24 487.926L162.221 487.955L162.204 487.984C157.622 495.62 155.44 505.174 155.44 516.456C155.44 522.8 156.561 529.121 158.779 535.406L158.805 535.479L158.834 535.55C161.428 541.85 164.961 547.435 169.436 552.283L169.442 552.289C174.302 557.524 180.254 561.788 187.252 565.103L187.278 565.116L187.305 565.128C194.811 568.505 203.519 570.144 213.352 570.144C222.843 570.144 231.088 568.326 237.955 564.534C244.906 561.228 250.527 556.956 254.709 551.668C259.148 546.835 262.335 541.413 264.228 535.414C266.408 529.936 267.568 524.834 267.568 520.152C267.568 517.288 267.394 514.573 267.038 512.011C267.003 509.482 266.366 506.722 265.265 503.787L263.759 499.772L260.504 502.562C256.105 506.333 251.161 508.176 245.56 508.176C241.022 508.176 237.402 506.695 234.481 503.775C231.747 501.04 230.08 496.507 230.08 489.528V465.24V462.898L227.808 462.33C224.673 461.546 220.889 461.184 216.52 461.184C211.39 461.184 205.418 461.733 198.628 462.805L198.553 462.817L198.478 462.832C191.415 464.319 184.738 467.106 178.458 471.169C172.071 475.302 166.67 480.911 162.24 487.926Z" stroke="white" stroke-width="6"/>
<defs>
<linearGradient id="paint0_linear_2_5" x1="162" y1="6.49997" x2="162" y2="567.144" gradientUnits="userSpaceOnUse">
<stop stop-color="#E54B4B"/>
<stop offset="1" stop-color="#FB9B7E"/>
</linearGradient>
<linearGradient id="paint1_linear_2_5" x1="289" y1="27" x2="289" y2="432" gradientUnits="userSpaceOnUse">
<stop stop-color="#E54B4B"/>
<stop offset="1" stop-color="#FFA987"/>
</linearGradient>
</defs>
</svg>
