<svg width="619" height="445" viewBox="0 0 619 445" fill="none" xmlns="http://www.w3.org/2000/svg">
<g clip-path="url(#clip0_409_2)">
<path d="M95.4712 122.189C95.4712 119.867 95.2596 117.545 94.8365 115.224C94.625 112.691 93.9904 110.475 92.9327 108.575C92.0865 106.464 90.7115 104.776 88.8077 103.509C87.1154 102.243 84.6827 101.61 81.5096 101.61C77.4904 101.61 74.1058 102.876 71.3558 105.409C70.0865 102.032 69.4519 98.9715 69.4519 96.2276C69.4519 92.8506 69.9808 89.579 71.0385 86.413C72.3077 83.0359 74.2115 80.081 76.75 77.5482C79.2885 75.0154 82.4615 73.0103 86.2692 71.5328C90.2885 69.8443 95.1539 69 100.865 69C113.558 69 123.394 72.7992 130.375 80.3976C137.356 87.996 140.846 98.4438 140.846 111.741V299.168C135.135 299.168 129.529 298.746 124.029 297.902C118.74 297.058 113.875 295.369 109.433 292.836C105.202 290.092 101.817 286.082 99.2788 280.806C96.7404 275.529 95.4712 268.458 95.4712 259.593V122.189ZM64.6923 299.168H61.5192C56.0192 299.168 50.7308 298.641 45.6538 297.585C40.5769 296.53 36.0288 294.63 32.0096 291.887C28.2019 289.143 25.0288 285.343 22.4904 280.489C20.1635 275.634 19 269.302 19 261.493V69.3166H24.0769C29.1538 69.3166 34.125 69.9498 38.9904 71.2162C43.8558 72.2715 48.1923 74.2767 52 77.2316C55.8077 79.9755 58.875 83.7747 61.2019 88.6292C63.5288 93.4838 64.6923 99.7102 64.6923 107.309V299.168ZM171.625 122.189C171.625 119.867 171.413 117.545 170.99 115.224C170.779 112.691 170.144 110.475 169.087 108.575C168.24 106.464 166.865 104.776 164.962 103.509C163.269 102.243 160.837 101.61 157.663 101.61C153.644 101.61 150.26 102.876 147.51 105.409C146.24 102.032 145.606 98.9715 145.606 96.2276C145.606 92.8506 146.135 89.579 147.192 86.413C148.462 83.0359 150.365 80.081 152.904 77.5482C155.442 75.0154 158.615 73.0103 162.423 71.5328C166.442 69.8443 171.308 69 177.019 69C189.712 69 199.548 72.7992 206.529 80.3976C213.51 87.996 217 98.4438 217 111.741V299.168C211.288 299.168 205.683 298.746 200.183 297.902C194.894 297.058 190.029 295.369 185.587 292.836C181.356 290.092 177.971 286.082 175.433 280.806C172.894 275.529 171.625 268.458 171.625 259.593V122.189Z" fill="url(#paint0_linear_409_2)"/>
<path d="M140.536 279.904C140.536 282.578 140.648 285.142 140.872 287.593C141.318 290.045 141.988 292.274 142.882 294.28C143.999 296.063 145.451 297.623 147.238 298.961C149.248 300.075 151.929 300.632 155.28 300.632C157.067 300.632 158.854 300.409 160.641 299.964C162.652 299.295 164.439 298.292 166.002 296.955C166.896 298.738 167.454 300.521 167.678 302.304C167.901 303.864 168.013 305.536 168.013 307.319C168.013 314.451 165.109 320.469 159.301 325.373C153.493 330.276 145.563 332.728 135.51 332.728C123.448 332.728 113.73 329.05 106.359 321.695C99.2103 314.117 95.6362 303.307 95.6362 289.265V163.223H97.6466C111.05 163.223 121.549 166.455 129.144 172.918C136.739 179.159 140.536 189.3 140.536 203.342V279.904ZM216.934 338.412C216.934 352.231 212.913 362.149 204.871 368.167C197.053 374.408 187.336 377.528 175.72 377.528H172.034V163.223H174.044C178.959 163.223 183.985 163.891 189.123 165.229C194.26 166.566 198.84 168.795 202.861 171.915C207.105 174.813 210.456 178.713 212.913 183.617C215.594 188.52 216.934 194.427 216.934 201.336V338.412ZM115.741 391.904C115.741 384.995 117.081 379.311 119.762 374.854C122.442 370.619 125.681 367.275 129.479 364.824C133.276 362.372 137.297 360.7 141.542 359.809C145.786 359.14 149.472 358.806 152.599 358.806C155.28 358.806 157.514 359.029 159.301 359.474V374.854C159.301 379.534 160.418 382.989 162.652 385.218C164.885 387.447 167.678 388.561 171.028 388.561C175.049 388.561 178.624 387.224 181.751 384.549C182.421 386.332 182.756 387.892 182.756 389.23C182.98 390.79 183.091 392.462 183.091 394.245C183.091 396.919 182.421 399.928 181.081 403.272C179.964 406.838 178.065 410.07 175.384 412.967C172.927 416.088 169.576 418.651 165.332 420.657C161.311 422.886 156.397 424 150.589 424C144.557 424 139.308 422.997 134.84 420.991C130.596 418.985 127.022 416.422 124.118 413.301C121.437 410.404 119.315 407.061 117.751 403.272C116.411 399.482 115.741 395.693 115.741 391.904Z" fill="url(#paint1_linear_409_2)"/>
<path d="M91.8469 115.473L91.8591 115.618L91.8851 115.761C92.2764 117.909 92.4712 120.05 92.4712 122.189V259.593C92.4712 261.458 92.5255 263.259 92.6362 264.993V289.265C92.6362 303.801 96.3421 315.448 104.176 323.754L104.207 323.787L104.24 323.819C112.263 331.825 122.789 335.728 135.51 335.728C146.04 335.728 154.733 333.155 161.236 327.665C164.795 324.66 167.409 321.225 169.034 317.388V377.528V380.528H172.034H175.72C177.947 380.528 180.115 380.418 182.223 380.198L179.801 382.269C177.203 384.491 174.316 385.561 171.028 385.561C168.418 385.561 166.404 384.724 164.77 383.094C163.323 381.65 162.301 379.12 162.301 374.854V359.474V357.131L160.027 356.564C157.921 356.038 155.424 355.806 152.599 355.806C149.27 355.806 145.421 356.161 141.075 356.845L141 356.857L140.925 356.873C136.306 357.843 131.945 359.661 127.852 362.303C123.651 365.015 120.115 368.687 117.227 373.249L117.208 373.278L117.191 373.307C114.152 378.361 112.741 384.624 112.741 391.904C112.741 396.054 113.476 400.181 114.923 404.272L114.949 404.345L114.978 404.416C116.672 408.521 118.984 412.17 121.916 415.339L121.922 415.345C125.11 418.771 129.004 421.551 133.558 423.703L133.585 423.716L133.611 423.728C138.544 425.943 144.229 427 150.589 427C156.735 427 162.15 425.828 166.701 423.328C171.209 421.184 174.9 418.397 177.667 414.917C180.563 411.764 182.658 408.214 183.908 404.281C185.317 400.738 186.091 397.378 186.091 394.245C186.091 392.411 185.981 390.663 185.754 389.005C185.719 387.255 185.276 385.401 184.559 383.494L183.275 380.078C192.238 378.971 200.081 375.818 206.706 370.541C215.739 363.759 219.934 352.775 219.934 338.412V302.168H220V299.168V111.741C220 97.9161 216.361 86.6654 208.738 78.368C201.062 70.013 190.343 66 177.019 66C171.044 66 165.773 66.879 161.299 68.7509C157.174 70.3567 153.647 72.5689 150.785 75.4245C147.941 78.262 145.803 81.5818 144.384 85.3576L144.365 85.4097L144.347 85.4624C143.186 88.9385 142.606 92.5313 142.606 96.2276C142.606 99.4256 143.343 102.85 144.701 106.464L146.268 110.632L149.542 107.616C151.694 105.633 154.336 104.61 157.663 104.61C160.497 104.61 162.193 105.184 163.164 105.911L163.231 105.961L163.3 106.007C164.701 106.939 165.683 108.148 166.302 109.691L166.373 109.868L166.465 110.034C167.284 111.504 167.819 113.294 168.001 115.473L168.013 115.618L168.039 115.761C168.43 117.909 168.625 120.05 168.625 122.189V259.593C168.625 262.519 168.759 265.286 169.034 267.889V296.34C168.922 296.096 168.806 295.853 168.684 295.611L166.967 292.183L164.052 294.675C162.82 295.729 161.411 296.531 159.802 297.081C158.283 297.45 156.777 297.632 155.28 297.632C152.343 297.632 150.271 297.157 148.864 296.429C147.496 295.377 146.395 294.188 145.536 292.862C144.808 291.185 144.241 289.297 143.847 287.186C143.847 287.183 143.846 287.18 143.846 287.177V111.741C143.846 97.9161 140.207 86.6654 132.584 78.368C124.908 70.013 114.189 66 100.865 66C94.8897 66 89.6194 66.879 85.1456 68.7509C81.0207 70.3567 77.4931 72.5689 74.6311 75.4245L76.5866 77.3845L74.631 75.4245C71.7873 78.262 69.6493 81.5818 68.2303 85.3576L68.2107 85.4097L68.1931 85.4624C67.1661 88.5364 66.5939 91.7016 66.4752 94.9489C65.8619 92.1774 65.0106 89.6345 63.9072 87.3325C61.404 82.1103 58.0482 77.9044 53.7974 74.8291C49.6498 71.6204 44.9335 69.4444 39.687 68.2976C34.5912 66.9766 29.3858 66.3166 24.0769 66.3166H19H16V69.3166V261.493C16 269.564 17.1969 276.386 19.7851 281.786L19.8077 281.833L19.8319 281.879C22.5505 287.078 26.0109 291.262 30.2557 294.32L30.2867 294.343L30.3181 294.364C34.6849 297.345 39.605 299.392 45.0433 300.523C50.3328 301.622 55.8265 302.168 61.5192 302.168H64.6923H67.6923V299.168V107.309C67.6923 106.052 67.6617 104.825 67.5998 103.629C67.8706 104.56 68.1872 105.506 68.5476 106.464L70.1137 110.632L73.3881 107.616C75.5405 105.633 78.1817 104.61 81.5096 104.61C84.3432 104.61 86.0389 105.184 87.0103 105.911L87.0769 105.961L87.1462 106.007C88.5475 106.939 89.5292 108.148 90.1481 109.691L90.219 109.868L90.3116 110.034C91.1298 111.504 91.6649 113.294 91.8469 115.473Z" stroke="white" stroke-width="6"/>
<mask id="path-3-outside-1_409_2" maskUnits="userSpaceOnUse" x="243" y="12" width="355" height="356" fill="black">
<rect fill="white" x="243" y="12" width="355" height="356"/>
<path d="M294.2 223.8C285.4 229.667 281 239.533 281 253.4C281 267 285.133 273.8 293.4 273.8C301.933 273.8 308.6 269 313.4 259.4V211L294.2 223.8ZM298.6 97C328.467 97 343.4 110.2 343.4 136.6V263.8C343.4 269.4 344.333 273.4 346.2 275.8C348.333 278.2 352.2 279.4 357.8 279.4C358.067 286.333 356.2 291.667 352.2 295.4C348.467 299.133 343 301 335.8 301C324.6 301 317.8 296.867 315.4 288.6C307.133 296.867 297.4 301 286.2 301C275 301 266.067 296.733 259.4 288.2C252.733 279.667 249.4 268.2 249.4 253.8C249.4 231.933 258.6 215.4 277 204.2L313.4 182.6V139.4C313.4 128.2 308.067 122.6 297.4 122.6C287 122.6 281.8 128.867 281.8 141.4V154.6L283 173.4C279.533 174.2 275.933 174.6 272.2 174.6C268.733 174.6 265.4 174.067 262.2 173C255.8 171.4 252.6 168.333 252.6 163.8V131C252.6 120.333 256.733 112.067 265 106.2C273.533 100.067 284.733 97 298.6 97ZM374.159 49C374.159 42.8667 372.959 34.7333 370.559 24.6C378.559 20.3333 387.093 18.2 396.159 18.2C401.493 18.2 404.159 20.2 404.159 24.2V263.8C404.159 269.4 405.093 273.4 406.959 275.8C409.093 278.2 412.959 279.4 418.559 279.4C418.826 286.333 416.959 291.667 412.959 295.4C409.226 299.133 403.626 301 396.159 301C388.693 301 383.093 298.733 379.359 294.2C375.893 289.667 374.159 282.2 374.159 271.8V49ZM436.659 49C436.659 42.8667 435.459 34.7333 433.059 24.6C441.059 20.3333 449.593 18.2 458.659 18.2C463.993 18.2 466.659 20.2 466.659 24.2V263.8C466.659 269.4 467.593 273.4 469.459 275.8C471.593 278.2 475.459 279.4 481.059 279.4C481.326 286.333 479.459 291.667 475.459 295.4C471.726 299.133 466.126 301 458.659 301C451.193 301 445.593 298.733 441.859 294.2C438.393 289.667 436.659 282.2 436.659 271.8V49ZM561.559 133.8C561.559 120.733 560.626 109.8 558.759 101C566.759 99.9333 575.426 99.4 584.759 99.4C589.293 99.4 591.559 101.4 591.559 105.4V325.4C591.559 337.4 587.293 346.467 578.759 352.6C570.493 358.733 559.293 361.8 545.159 361.8C531.026 361.8 520.093 359.133 512.359 353.8C504.626 348.467 500.759 341.133 500.759 331.8V317C500.759 312.467 503.959 309.267 510.359 307.4C513.559 306.6 516.893 306.2 520.359 306.2C524.093 306.2 527.693 306.6 531.159 307.4C530.359 313.8 529.959 319.4 529.959 324.2V326.2C529.959 332.867 535.159 336.2 545.559 336.2C556.226 336.2 561.559 331.533 561.559 322.2V282.6C554.893 289.267 546.226 292.6 535.559 292.6C525.159 292.6 516.759 289.267 510.359 282.6C503.959 275.667 500.759 265.667 500.759 252.6V134.2C500.759 128.6 499.693 124.6 497.559 122.2C495.693 119.8 491.959 118.6 486.359 118.6C486.093 111.933 487.959 106.733 491.959 103C496.226 99 502.093 97 509.559 97C517.026 97 522.359 99.1333 525.559 103.4C529.026 107.667 530.759 114.733 530.759 124.6V252.2C530.759 261 534.226 265.4 541.159 265.4C544.893 265.4 548.759 264.2 552.759 261.8C556.759 259.133 559.693 256.2 561.559 253V133.8Z"/>
</mask>
<path d="M294.2 223.8C285.4 229.667 281 239.533 281 253.4C281 267 285.133 273.8 293.4 273.8C301.933 273.8 308.6 269 313.4 259.4V211L294.2 223.8ZM298.6 97C328.467 97 343.4 110.2 343.4 136.6V263.8C343.4 269.4 344.333 273.4 346.2 275.8C348.333 278.2 352.2 279.4 357.8 279.4C358.067 286.333 356.2 291.667 352.2 295.4C348.467 299.133 343 301 335.8 301C324.6 301 317.8 296.867 315.4 288.6C307.133 296.867 297.4 301 286.2 301C275 301 266.067 296.733 259.4 288.2C252.733 279.667 249.4 268.2 249.4 253.8C249.4 231.933 258.6 215.4 277 204.2L313.4 182.6V139.4C313.4 128.2 308.067 122.6 297.4 122.6C287 122.6 281.8 128.867 281.8 141.4V154.6L283 173.4C279.533 174.2 275.933 174.6 272.2 174.6C268.733 174.6 265.4 174.067 262.2 173C255.8 171.4 252.6 168.333 252.6 163.8V131C252.6 120.333 256.733 112.067 265 106.2C273.533 100.067 284.733 97 298.6 97ZM374.159 49C374.159 42.8667 372.959 34.7333 370.559 24.6C378.559 20.3333 387.093 18.2 396.159 18.2C401.493 18.2 404.159 20.2 404.159 24.2V263.8C404.159 269.4 405.093 273.4 406.959 275.8C409.093 278.2 412.959 279.4 418.559 279.4C418.826 286.333 416.959 291.667 412.959 295.4C409.226 299.133 403.626 301 396.159 301C388.693 301 383.093 298.733 379.359 294.2C375.893 289.667 374.159 282.2 374.159 271.8V49ZM436.659 49C436.659 42.8667 435.459 34.7333 433.059 24.6C441.059 20.3333 449.593 18.2 458.659 18.2C463.993 18.2 466.659 20.2 466.659 24.2V263.8C466.659 269.4 467.593 273.4 469.459 275.8C471.593 278.2 475.459 279.4 481.059 279.4C481.326 286.333 479.459 291.667 475.459 295.4C471.726 299.133 466.126 301 458.659 301C451.193 301 445.593 298.733 441.859 294.2C438.393 289.667 436.659 282.2 436.659 271.8V49ZM561.559 133.8C561.559 120.733 560.626 109.8 558.759 101C566.759 99.9333 575.426 99.4 584.759 99.4C589.293 99.4 591.559 101.4 591.559 105.4V325.4C591.559 337.4 587.293 346.467 578.759 352.6C570.493 358.733 559.293 361.8 545.159 361.8C531.026 361.8 520.093 359.133 512.359 353.8C504.626 348.467 500.759 341.133 500.759 331.8V317C500.759 312.467 503.959 309.267 510.359 307.4C513.559 306.6 516.893 306.2 520.359 306.2C524.093 306.2 527.693 306.6 531.159 307.4C530.359 313.8 529.959 319.4 529.959 324.2V326.2C529.959 332.867 535.159 336.2 545.559 336.2C556.226 336.2 561.559 331.533 561.559 322.2V282.6C554.893 289.267 546.226 292.6 535.559 292.6C525.159 292.6 516.759 289.267 510.359 282.6C503.959 275.667 500.759 265.667 500.759 252.6V134.2C500.759 128.6 499.693 124.6 497.559 122.2C495.693 119.8 491.959 118.6 486.359 118.6C486.093 111.933 487.959 106.733 491.959 103C496.226 99 502.093 97 509.559 97C517.026 97 522.359 99.1333 525.559 103.4C529.026 107.667 530.759 114.733 530.759 124.6V252.2C530.759 261 534.226 265.4 541.159 265.4C544.893 265.4 548.759 264.2 552.759 261.8C556.759 259.133 559.693 256.2 561.559 253V133.8Z" fill="url(#paint2_linear_409_2)"/>
<path d="M294.2 223.8L290.872 218.808L290.872 218.808L294.2 223.8ZM313.4 259.4L318.767 262.083L319.4 260.816V259.4H313.4ZM313.4 211H319.4V199.789L310.072 206.008L313.4 211ZM346.2 275.8L341.464 279.484L341.585 279.639L341.716 279.786L346.2 275.8ZM357.8 279.4L363.796 279.169L363.574 273.4H357.8V279.4ZM352.2 295.4L348.106 291.014L348.03 291.084L347.957 291.157L352.2 295.4ZM315.4 288.6L321.162 286.927L318.333 277.182L311.157 284.357L315.4 288.6ZM259.4 288.2L264.128 284.506L264.128 284.506L259.4 288.2ZM277 204.2L273.938 199.04L273.909 199.057L273.88 199.075L277 204.2ZM313.4 182.6L316.462 187.76L319.4 186.016V182.6H313.4ZM281.8 154.6H275.8V154.791L275.812 154.982L281.8 154.6ZM283 173.4L284.349 179.246L289.312 178.101L288.988 173.018L283 173.4ZM262.2 173L264.097 167.308L263.879 167.235L263.655 167.179L262.2 173ZM265 106.2L268.472 111.093L268.487 111.083L268.502 111.072L265 106.2ZM290.872 218.808C279.897 226.125 275 238.223 275 253.4H287C287 240.844 290.903 233.209 297.528 228.792L290.872 218.808ZM275 253.4C275 260.612 276.061 267.026 278.973 271.816C282.178 277.09 287.271 279.8 293.4 279.8V267.8C291.263 267.8 290.155 267.11 289.227 265.584C288.006 263.574 287 259.788 287 253.4H275ZM293.4 279.8C304.83 279.8 313.263 273.09 318.767 262.083L308.033 256.717C303.937 264.91 299.036 267.8 293.4 267.8V279.8ZM319.4 259.4V211H307.4V259.4H319.4ZM310.072 206.008L290.872 218.808L297.528 228.792L316.728 215.992L310.072 206.008ZM298.6 103C312.778 103 322.291 106.149 328.226 111.396C334.02 116.517 337.4 124.53 337.4 136.6H349.4C349.4 122.27 345.313 110.483 336.174 102.404C327.176 94.4508 314.289 91 298.6 91V103ZM337.4 136.6V263.8H349.4V136.6H337.4ZM337.4 263.8C337.4 269.753 338.331 275.455 341.464 279.484L350.936 272.116C350.336 271.345 349.4 269.047 349.4 263.8H337.4ZM341.716 279.786C345.597 284.152 351.689 285.4 357.8 285.4V273.4C352.711 273.4 351.07 272.248 350.684 271.814L341.716 279.786ZM351.804 279.631C352.023 285.325 350.505 288.775 348.106 291.014L356.294 299.786C361.895 294.558 364.11 287.342 363.796 279.169L351.804 279.631ZM347.957 291.157C345.709 293.406 342.002 295 335.8 295V307C343.998 307 351.225 304.861 356.443 299.643L347.957 291.157ZM335.8 295C330.873 295 327.57 294.082 325.416 292.773C323.409 291.553 321.981 289.747 321.162 286.927L309.638 290.273C311.219 295.72 314.391 300.114 319.184 303.027C323.83 305.852 329.527 307 335.8 307V295ZM311.157 284.357C303.961 291.554 295.733 295 286.2 295V307C299.067 307 310.306 302.18 319.643 292.843L311.157 284.357ZM286.2 295C276.773 295 269.613 291.527 264.128 284.506L254.672 291.894C262.52 301.94 273.227 307 286.2 307V295ZM264.128 284.506C258.521 277.329 255.4 267.302 255.4 253.8H243.4C243.4 269.098 246.945 282.004 254.672 291.894L264.128 284.506ZM255.4 253.8C255.4 233.988 263.541 219.416 280.12 209.325L273.88 199.075C253.659 211.384 243.4 229.878 243.4 253.8H255.4ZM280.062 209.36L316.462 187.76L310.338 177.44L273.938 199.04L280.062 209.36ZM319.4 182.6V139.4H307.4V182.6H319.4ZM319.4 139.4C319.4 132.946 317.868 126.992 313.745 122.662C309.569 118.278 303.735 116.6 297.4 116.6V128.6C301.732 128.6 303.898 129.722 305.055 130.938C306.265 132.208 307.4 134.654 307.4 139.4H319.4ZM297.4 116.6C290.95 116.6 285.125 118.597 281.083 123.469C277.218 128.126 275.8 134.453 275.8 141.4H287.8C287.8 135.814 288.982 132.741 290.317 131.131C291.475 129.736 293.45 128.6 297.4 128.6V116.6ZM275.8 141.4V154.6H287.8V141.4H275.8ZM275.812 154.982L277.012 173.782L288.988 173.018L287.788 154.218L275.812 154.982ZM281.651 167.554C278.648 168.247 275.502 168.6 272.2 168.6V180.6C276.365 180.6 280.419 180.153 284.349 179.246L281.651 167.554ZM272.2 168.6C269.36 168.6 266.669 168.165 264.097 167.308L260.303 178.692C264.131 179.968 268.107 180.6 272.2 180.6V168.6ZM263.655 167.179C261.009 166.518 259.717 165.71 259.151 165.168C258.762 164.795 258.6 164.473 258.6 163.8H246.6C246.6 167.66 248.038 171.138 250.849 173.832C253.483 176.357 256.991 177.882 260.745 178.821L263.655 167.179ZM258.6 163.8V131H246.6V163.8H258.6ZM258.6 131C258.6 122.158 261.887 115.767 268.472 111.093L261.528 101.307C251.58 108.366 246.6 118.509 246.6 131H258.6ZM268.502 111.072C275.733 105.875 285.592 103 298.6 103V91C283.875 91 271.334 94.2587 261.498 101.328L268.502 111.072ZM370.559 24.6L367.736 19.3059L363.655 21.4823L364.721 25.9828L370.559 24.6ZM406.959 275.8L402.223 279.484L402.344 279.639L402.475 279.786L406.959 275.8ZM418.559 279.4L424.555 279.169L424.333 273.4H418.559V279.4ZM412.959 295.4L408.865 291.014L408.79 291.084L408.717 291.157L412.959 295.4ZM379.359 294.2L374.593 297.845L374.659 297.931L374.728 298.014L379.359 294.2ZM380.159 49C380.159 42.1892 378.842 33.5363 376.398 23.2172L364.721 25.9828C367.077 35.9303 368.159 43.5441 368.159 49H380.159ZM373.383 29.8941C380.514 26.0909 388.078 24.2 396.159 24.2V12.2C386.108 12.2 376.605 14.5757 367.736 19.3059L373.383 29.8941ZM396.159 24.2C397.137 24.2 397.795 24.2937 398.204 24.3958C398.607 24.4965 398.665 24.579 398.559 24.5C398.42 24.3956 398.266 24.2122 398.177 24.0118C398.103 23.8462 398.159 23.8603 398.159 24.2H410.159C410.159 20.736 408.914 17.2657 405.759 14.9C402.93 12.7777 399.403 12.2 396.159 12.2V24.2ZM398.159 24.2V263.8H410.159V24.2H398.159ZM398.159 263.8C398.159 269.753 399.09 275.455 402.223 279.484L411.695 272.116C411.095 271.345 410.159 269.047 410.159 263.8H398.159ZM402.475 279.786C406.356 284.152 412.449 285.4 418.559 285.4V273.4C413.47 273.4 411.83 272.248 411.444 271.814L402.475 279.786ZM412.564 279.631C412.783 285.325 411.264 288.775 408.865 291.014L417.053 299.786C422.655 294.558 424.869 287.342 424.555 279.169L412.564 279.631ZM408.717 291.157C406.505 293.369 402.701 295 396.159 295V307C404.551 307 411.947 304.898 417.202 299.643L408.717 291.157ZM396.159 295C389.958 295 386.287 293.174 383.991 290.386L374.728 298.014C379.899 304.293 387.428 307 396.159 307V295ZM384.126 290.555C381.89 287.631 380.159 281.832 380.159 271.8H368.159C368.159 282.568 369.896 291.702 374.593 297.845L384.126 290.555ZM380.159 271.8V49H368.159V271.8H380.159ZM433.059 24.6L430.236 19.3059L426.155 21.4823L427.221 25.9828L433.059 24.6ZM469.459 275.8L464.723 279.484L464.844 279.639L464.975 279.786L469.459 275.8ZM481.059 279.4L487.055 279.169L486.833 273.4H481.059V279.4ZM475.459 295.4L471.365 291.014L471.29 291.084L471.217 291.157L475.459 295.4ZM441.859 294.2L437.093 297.845L437.159 297.931L437.228 298.014L441.859 294.2ZM442.659 49C442.659 42.1892 441.342 33.5363 438.898 23.2172L427.221 25.9828C429.577 35.9303 430.659 43.5441 430.659 49H442.659ZM435.883 29.8941C443.014 26.0909 450.578 24.2 458.659 24.2V12.2C448.608 12.2 439.105 14.5757 430.236 19.3059L435.883 29.8941ZM458.659 24.2C459.637 24.2 460.295 24.2937 460.704 24.3958C461.107 24.4965 461.165 24.579 461.059 24.5C460.92 24.3956 460.766 24.2122 460.677 24.0118C460.603 23.8462 460.659 23.8603 460.659 24.2H472.659C472.659 20.736 471.414 17.2657 468.259 14.9C465.43 12.7777 461.903 12.2 458.659 12.2V24.2ZM460.659 24.2V263.8H472.659V24.2H460.659ZM460.659 263.8C460.659 269.753 461.59 275.455 464.723 279.484L474.195 272.116C473.595 271.345 472.659 269.047 472.659 263.8H460.659ZM464.975 279.786C468.856 284.152 474.949 285.4 481.059 285.4V273.4C475.97 273.4 474.33 272.248 473.944 271.814L464.975 279.786ZM475.064 279.631C475.283 285.325 473.764 288.775 471.365 291.014L479.553 299.786C485.155 294.558 487.369 287.342 487.055 279.169L475.064 279.631ZM471.217 291.157C469.005 293.369 465.201 295 458.659 295V307C467.051 307 474.447 304.898 479.702 299.643L471.217 291.157ZM458.659 295C452.458 295 448.787 293.174 446.491 290.386L437.228 298.014C442.399 304.293 449.928 307 458.659 307V295ZM446.626 290.555C444.39 287.631 442.659 281.832 442.659 271.8H430.659C430.659 282.568 432.396 291.702 437.093 297.845L446.626 290.555ZM442.659 271.8V49H430.659V271.8H442.659ZM558.759 101L557.966 95.0526L551.546 95.9087L552.89 102.245L558.759 101ZM578.759 352.6L575.258 347.728L575.221 347.754L575.184 347.781L578.759 352.6ZM512.359 353.8L508.953 358.739L508.953 358.739L512.359 353.8ZM510.359 307.4L508.904 301.579L508.791 301.607L508.679 301.64L510.359 307.4ZM531.159 307.4L537.113 308.144L537.785 302.771L532.509 301.554L531.159 307.4ZM561.559 282.6H567.559V268.115L557.317 278.357L561.559 282.6ZM510.359 282.6L505.951 286.67L505.99 286.713L506.031 286.755L510.359 282.6ZM497.559 122.2L492.823 125.884L492.944 126.039L493.075 126.186L497.559 122.2ZM486.359 118.6L480.364 118.84L480.595 124.6H486.359V118.6ZM491.959 103L496.053 107.386L496.063 107.377L491.959 103ZM525.559 103.4L520.759 107L520.829 107.093L520.903 107.184L525.559 103.4ZM552.759 261.8L555.846 266.945L555.969 266.871L556.088 266.792L552.759 261.8ZM561.559 253L566.742 256.023L567.559 254.622V253H561.559ZM567.559 133.8C567.559 120.485 566.612 109.103 564.629 99.755L552.89 102.245C554.64 110.497 555.559 120.982 555.559 133.8H567.559ZM559.552 106.947C567.253 105.921 575.651 105.4 584.759 105.4V93.4C575.201 93.4 566.266 93.946 557.966 95.0526L559.552 106.947ZM584.759 105.4C585.471 105.4 585.87 105.481 586.041 105.531C586.194 105.576 586.085 105.571 585.89 105.399C585.797 105.317 585.711 105.22 585.642 105.118C585.573 105.016 585.537 104.936 585.522 104.895C585.494 104.823 585.559 104.952 585.559 105.4H597.559C597.559 102.267 596.637 98.8785 593.829 96.401C591.164 94.0498 587.779 93.4 584.759 93.4V105.4ZM585.559 105.4V325.4H597.559V105.4H585.559ZM585.559 325.4C585.559 335.784 581.983 342.894 575.258 347.728L582.261 357.472C592.603 350.039 597.559 339.016 597.559 325.4H585.559ZM575.184 347.781C568.275 352.908 558.477 355.8 545.159 355.8V367.8C560.109 367.8 572.71 364.559 582.334 357.419L575.184 347.781ZM545.159 355.8C531.665 355.8 522.109 353.235 515.766 348.861L508.953 358.739C518.076 365.031 530.387 367.8 545.159 367.8V355.8ZM515.766 348.861C509.644 344.639 506.759 339.145 506.759 331.8H494.759C494.759 343.121 499.608 352.295 508.953 358.739L515.766 348.861ZM506.759 331.8V317H494.759V331.8H506.759ZM506.759 317C506.759 316.322 506.929 315.915 507.402 315.443C508.03 314.814 509.382 313.935 512.039 313.16L508.679 301.64C504.936 302.732 501.488 304.386 498.917 306.957C496.189 309.685 494.759 313.145 494.759 317H506.759ZM511.815 313.221C514.515 312.546 517.358 312.2 520.359 312.2V300.2C516.427 300.2 512.604 300.654 508.904 301.579L511.815 313.221ZM520.359 312.2C523.661 312.2 526.807 312.553 529.81 313.246L532.509 301.554C528.578 300.647 524.524 300.2 520.359 300.2V312.2ZM525.206 306.656C524.385 313.225 523.959 319.083 523.959 324.2H535.959C535.959 319.717 536.334 314.375 537.113 308.144L525.206 306.656ZM523.959 324.2V326.2H535.959V324.2H523.959ZM523.959 326.2C523.959 331.384 526.143 335.881 530.621 338.751C534.644 341.33 539.911 342.2 545.559 342.2V330.2C540.808 330.2 538.275 329.404 537.097 328.649C536.376 328.186 535.959 327.683 535.959 326.2H523.959ZM545.559 342.2C551.635 342.2 557.313 340.888 561.51 337.215C565.861 333.409 567.559 328.015 567.559 322.2H555.559C555.559 325.718 554.591 327.325 553.608 328.185C552.472 329.178 550.15 330.2 545.559 330.2V342.2ZM567.559 322.2V282.6H555.559V322.2H567.559ZM557.317 278.357C551.927 283.747 544.863 286.6 535.559 286.6V298.6C547.59 298.6 557.859 294.786 565.802 286.843L557.317 278.357ZM535.559 286.6C526.568 286.6 519.809 283.78 514.688 278.445L506.031 286.755C513.709 294.753 523.751 298.6 535.559 298.6V286.6ZM514.768 278.53C509.729 273.071 506.759 264.743 506.759 252.6H494.759C494.759 266.591 498.19 278.263 505.951 286.67L514.768 278.53ZM506.759 252.6V134.2H494.759V252.6H506.759ZM506.759 134.2C506.759 128.127 505.658 122.279 502.044 118.214L493.075 126.186C493.728 126.921 494.759 129.073 494.759 134.2H506.759ZM502.295 118.516C498.624 113.795 492.346 112.6 486.359 112.6V124.6C491.573 124.6 492.762 125.805 492.823 125.884L502.295 118.516ZM492.355 118.36C492.141 113.021 493.607 109.669 496.053 107.386L487.865 98.6137C482.312 103.797 480.044 110.846 480.364 118.84L492.355 118.36ZM496.063 107.377C498.935 104.685 503.179 103 509.559 103V91C501.006 91 493.517 93.3149 487.856 98.6228L496.063 107.377ZM509.559 103C515.942 103 519.101 104.789 520.759 107L530.359 99.8C525.618 93.4777 518.11 91 509.559 91V103ZM520.903 107.184C523.039 109.813 524.759 115.138 524.759 124.6H536.759C536.759 114.329 535.013 105.521 530.216 99.6164L520.903 107.184ZM524.759 124.6V252.2H536.759V124.6H524.759ZM524.759 252.2C524.759 257.225 525.722 262.101 528.646 265.813C531.786 269.798 536.336 271.4 541.159 271.4V259.4C539.049 259.4 538.4 258.802 538.072 258.387C537.53 257.699 536.759 255.975 536.759 252.2H524.759ZM541.159 271.4C546.221 271.4 551.145 269.766 555.846 266.945L549.672 256.655C546.374 258.634 543.564 259.4 541.159 259.4V271.4ZM556.088 266.792C560.63 263.764 564.299 260.211 566.742 256.023L556.377 249.977C555.086 252.189 552.889 254.502 549.431 256.808L556.088 266.792ZM567.559 253V133.8H555.559V253H567.559Z" fill="white" mask="url(#path-3-outside-1_409_2)"/>
</g>
<defs>
<linearGradient id="paint0_linear_409_2" x1="118" y1="69" x2="118" y2="424" gradientUnits="userSpaceOnUse">
<stop stop-color="#E54B4B"/>
<stop offset="1" stop-color="#FB9B7E"/>
</linearGradient>
<linearGradient id="paint1_linear_409_2" x1="198.596" y1="81.9806" x2="198.596" y2="338.427" gradientUnits="userSpaceOnUse">
<stop stop-color="#E54B4B"/>
<stop offset="1" stop-color="#FFA987"/>
</linearGradient>
<linearGradient id="paint2_linear_409_2" x1="423.5" y1="-41" x2="423.5" y2="362" gradientUnits="userSpaceOnUse">
<stop stop-color="#E54B4B"/>
<stop offset="1" stop-color="#FFA987"/>
</linearGradient>
<clipPath id="clip0_409_2">
<rect width="619" height="445" fill="white"/>
</clipPath>
</defs>
</svg>
